Coordinates
version=1
nRows=8
nColumns=36
inDegrees=yes

Units are S.I. units (second, meters, Newtons, ...)
If the header above contains a line with 'inDegrees', this indicates whether rotational values are in degrees (yes) or radians (no).

endheader
time	pelvis_tilt	pelvis_list	pelvis_rotation	pelvis_tx	pelvis_ty	pelvis_tz	hip_flexion_r	hip_adduction_r	hip_rotation_r	knee_angle_r	knee_angle_r_beta	ankle_angle_r	subtalar_angle_r	mtp_angle_r	hip_flexion_l	hip_adduction_l	hip_rotation_l	knee_angle_l	knee_angle_l_beta	ankle_angle_l	subtalar_angle_l	mtp_angle_l	lumbar_extension	lumbar_bending	lumbar_rotation	arm_flex_r	arm_add_r	arm_rot_r	elbow_flex_r	pro_sup_r	arm_flex_l	arm_add_l	arm_rot_l	elbow_flex_l	pro_sup_l
      2.45000000	     -5.77768505	      0.12517381	      3.43191825	      0.80186512	      0.92085363	      0.11467812	     29.31678747	      5.23402575	     -3.90497021	     44.00308047	      0.76799864	     17.72454584	      8.62351176	     -7.49999987	     46.88753126	      0.15244290	      1.19872672	     20.81776659	      0.36333857	     -1.13322866	     -1.34395152	     -7.49999987	    -15.94229290	      2.50665534	      0.81826081	     61.78841654	     10.31941924	     73.30661629	    124.57606041	     93.37996937	     47.74320268	      6.75269016	     69.34170205	    123.45496808	     76.09841079
      2.46666670	     -5.94386942	      0.07505890	      3.65821086	      0.80063556	      0.91565342	      0.11461406	     30.91314690	      5.03654210	     -4.14637935	     46.53830348	      0.81224662	     18.17416586	      9.65163304	     -7.49999987	     47.86636046	      0.23021876	      1.33076049	     21.21334123	      0.37024265	     -1.50757620	     -1.40285719	     -7.49999987	    -17.10352138	      2.61852120	      0.75063595	     62.25796098	     10.17058949	     74.60568014	    124.97295287	     92.61698559	     49.11803558	      6.49036697	     71.14182560	    124.02765144	     75.56598366
      2.48333330	     -5.96072909	     -0.01177822	      3.58284798	      0.79096207	      0.90943720	      0.11501839	     32.69662394	      5.08254594	     -4.02247141	     49.07555724	      0.85653006	     17.90035416	     10.04485351	     -7.49999987	     49.07220744	      0.15051301	      1.14470232	     21.56620014	      0.37640120	     -2.06137818	     -1.12258897	     -7.49999987	    -18.73999276	      2.87738748	      1.17688854	     63.52267733	     10.06879450	     75.03447285	    125.21763382	     92.57428900	     50.63940101	      6.62217355	     72.51481130	    124.18433596	     76.14668644
      2.50000000	     -6.12461451	     -0.03486414	      3.56653712	      0.79040353	      0.89629236	      0.11610040	     34.98845144	      5.26431399	     -3.76683776	     52.41041983	      0.91473439	     18.42669741	     10.02139549	     -7.49999987	     50.73752090	     -0.05868150	      1.11693437	     21.66785724	      0.37817545	     -2.78866648	     -0.99361698	     -7.49999987	    -20.20728752	      2.82878603	      1.33884096	     64.15591208	      9.67873580	     74.98131590	    125.82060738	     92.22146304	     52.10812834	      6.16179446	     72.60449997	    124.44894301	     76.25451187
      2.51666670	     -6.05557980	     -0.10180731	      3.48669777	      0.79049291	      0.89393229	      0.11575380	     36.84633570	      5.58298841	     -3.27793095	     55.30211945	      0.96520407	     18.01879305	      9.36066983	     -7.49999987	     51.83458744	     -0.27077022	      1.12337191	     21.80656445	      0.38059635	     -4.05657833	     -0.37954861	     -7.49999987	    -21.63735281	      2.93726671	      1.25885114	     64.83048069	      9.53239045	     74.89939596	    126.06583587	     92.19245328	     52.91120802	      6.04320792	     73.14111575	    124.85771760	     76.41593384
      2.53333330	     -6.09372524	     -0.12074244	      2.93164197	      0.78535502	      0.88236628	      0.11890883	     38.98752163	      6.15542823	     -2.54416032	     58.34124605	      1.01824683	     18.01276928	      8.52652550	     -7.49999987	     53.20260696	     -0.95909997	      0.31217833	     22.30349502	      0.38926942	     -4.47023173	      0.30190662	     -7.49999987	    -22.81488202	      2.68353991	      1.57435222	     65.35221076	      9.60334520	     75.09330597	    126.52731871	     90.63921783	     54.02439926	      5.58117902	     73.30005724	    124.89855766	     76.17077325
      2.55000000	     -6.11376793	     -0.10877595	      2.59354146	      0.78061597	      0.87613206	      0.12212377	     41.16035317	      6.61922723	     -2.13676780	     61.28325017	      1.06959449	     18.18519988	      7.79928075	     -7.49999987	     54.46506180	     -1.55468307	     -0.57477982	     22.99731604	      0.40137888	     -4.89674785	      0.12481396	     -7.49999987	    -24.09231103	      2.40866445	      1.62430087	     65.85836172	      9.61716744	     74.66749627	    126.93753715	     89.94374419	     55.00139304	      5.19691086	     73.19396663	    125.32777831	     75.66466148
      2.56666670	     -6.01373540	     -0.07542875	      2.31682238	      0.78017313	      0.86780725	      0.12278068	     42.38485594	      6.97251428	     -1.97505017	     63.37348589	      1.10607599	     19.01388414	      7.05178220	     -7.49999987	     55.31211761	     -2.00580601	     -1.65416406	     22.76206742	      0.39727302	     -5.15820122	      0.90244433	     -7.49999987	    -25.22513713	      2.22500761	      2.06583364	     66.62292421	      9.78545625	     74.75595043	    126.84578513	     89.85833153	     55.64323850	      5.71381384	     74.57055951	    126.42248742	     76.05324107
